<?xml version="1.0" encoding="UTF-8" ?>
<!DOCTYPE svg PUBLIC "-//W3C//DTD SVG 1.1//EN" "http://www.w3.org/Graphics/SVG/1.1/DTD/svg11.dtd">
<svg width="128pt" height="128pt" viewBox="0 0 128 128" version="1.1" xmlns="http://www.w3.org/2000/svg">
<path fill="#fdfdfd" d=" M 0.00 0.00 L 128.00 0.00 L 128.00 128.00 L 0.00 128.00 L 0.00 0.00 Z" />
<path fill="#fdc970" d=" M 1.26 2.52 C 35.58 2.51 69.90 2.48 104.22 2.53 C 104.31 12.54 104.25 22.55 104.22 32.55 C 100.92 33.21 97.80 34.52 94.99 36.37 C 94.95 28.16 95.01 19.96 95.00 11.75 C 91.00 11.79 87.00 11.80 83.01 11.76 C 83.10 18.76 82.95 25.76 82.98 32.76 C 62.82 32.75 42.67 32.81 22.51 32.73 C 22.56 25.75 22.40 18.76 22.51 11.77 C 18.51 11.73 14.51 11.73 10.51 11.80 C 10.48 46.69 10.54 81.59 10.49 116.49 C 19.47 116.51 28.45 116.45 37.43 116.52 C 36.57 119.61 35.66 122.69 34.73 125.76 C 23.58 125.74 12.42 125.78 1.26 125.74 C 1.24 84.67 1.24 43.59 1.26 2.52 Z" />
<path fill="#3474b1" d=" M 98.57 42.55 C 101.82 38.99 107.89 38.09 111.68 41.30 C 114.91 44.05 117.67 47.31 120.75 50.22 C 122.71 52.23 125.12 54.18 125.64 57.10 C 126.51 60.79 124.82 64.58 122.10 67.06 C 108.16 80.94 94.31 94.90 80.36 108.77 C 77.08 97.39 68.13 87.83 56.73 84.36 C 70.71 70.45 84.61 56.47 98.57 42.55 Z" />
<path fill="#fdc970" d=" M 22.01 46.01 C 42.75 46.09 63.50 45.74 84.23 46.18 C 82.34 49.70 79.15 52.69 75.94 54.88 C 57.97 55.26 39.99 54.81 22.02 55.08 C 22.00 52.06 22.00 49.03 22.01 46.01 Z" />
<path fill="#fdc970" d=" M 22.03 68.78 C 35.57 68.71 49.11 68.71 62.65 68.78 C 59.68 71.71 56.72 74.65 53.68 77.50 C 43.11 77.58 32.54 77.39 21.96 77.57 C 21.99 74.64 22.01 71.71 22.03 68.78 Z" />
<path fill="#fdc970" d=" M 22.04 91.25 C 30.01 91.15 37.99 91.28 45.96 91.26 C 44.88 94.26 43.79 97.26 42.73 100.27 C 35.79 100.31 28.85 100.19 21.91 100.24 C 21.95 97.24 21.99 94.25 22.04 91.25 Z" />
<path fill="#3474b1" d=" M 52.80 92.85 C 62.11 95.30 69.61 103.04 71.73 112.43 C 62.42 115.91 52.83 118.59 43.30 121.36 C 46.11 111.74 49.27 102.23 52.80 92.85 Z" />
<path fill="#fdc970" d=" M 94.90 104.05 C 98.03 100.85 101.23 97.73 104.35 94.53 C 104.07 104.93 104.41 115.33 104.22 125.74 C 87.24 125.74 70.27 125.83 53.29 125.69 C 60.97 123.46 68.66 121.16 76.06 118.11 C 81.94 115.08 88.71 117.03 95.01 116.50 C 95.02 112.35 94.99 108.20 94.90 104.05 Z" />
</svg>
